M48
;DRILL file {KiCad 4.0.6} date 04/16/19 19:12:07
;FORMAT={-:-/ absolute / inch / decimal}
FMAT,2
INCH,TZ
T1C0.031
T2C0.040
T3C0.059
T4C0.067
T5C0.087
T6C0.157
%
G90
G05
M72
T1
X5.7Y-3.0937
X5.7Y-3.8437
X6.Y-3.0937
X6.Y-3.8437
X6.375Y-2.3437
X6.375Y-3.0937
X6.375Y-3.8437
X6.675Y-2.3437
X6.675Y-3.0937
X6.675Y-3.8437
X6.9375Y-2.6063
X6.9375Y-2.9063
X7.125Y-3.0937
X7.125Y-3.8437
X7.2187Y-2.3437
X7.425Y-3.0937
X7.425Y-3.8437
X7.5187Y-2.3437
X7.875Y-2.3437
X7.875Y-3.0937
X7.875Y-3.8437
X8.175Y-2.3437
X8.175Y-3.0937
X8.175Y-3.8437
T2
X5.5125Y-1.75
X5.5125Y-1.85
X5.5125Y-1.95
X5.5125Y-2.05
X5.5125Y-2.15
X5.5125Y-2.25
X5.5125Y-2.35
X5.5125Y-2.45
X5.5125Y-2.55
X5.5125Y-2.65
X5.5125Y-2.75
X5.5125Y-2.85
X6.1125Y-1.75
X6.1125Y-1.85
X6.1125Y-1.95
X6.1125Y-2.05
X6.1125Y-2.15
X6.1125Y-2.25
X6.1125Y-2.35
X6.1125Y-2.45
X6.1125Y-2.55
X6.1125Y-2.65
X6.1125Y-2.75
X6.1125Y-2.85
T3
X5.6625Y-1.8687
X5.6625Y-2.6187
X5.6625Y-3.3687
X5.9125Y-1.7687
X5.9125Y-2.5187
X5.9125Y-3.2687
X6.4125Y-1.8687
X6.4125Y-2.6187
X6.4125Y-3.3687
X6.6625Y-1.7687
X6.6625Y-2.5187
X6.6625Y-3.2687
X7.1625Y-1.8687
X7.1625Y-2.6187
X7.1625Y-3.3687
X7.4125Y-1.7687
X7.4125Y-2.5187
X7.4125Y-3.2687
X7.9125Y-1.8687
X7.9125Y-2.6187
X7.9125Y-3.3687
X8.1625Y-1.7687
X8.1625Y-2.5187
X8.1625Y-3.2687
T4
X5.6125Y-1.9687
X5.6125Y-2.7187
X5.6125Y-3.4687
X6.0125Y-1.9687
X6.0125Y-2.7187
X6.0125Y-3.4687
X6.3625Y-1.9687
X6.3625Y-2.7187
X6.3625Y-3.4687
X6.7625Y-1.9687
X6.7625Y-2.7187
X6.7625Y-3.4687
X7.1125Y-1.9687
X7.1125Y-2.7187
X7.1125Y-3.4687
X7.5125Y-1.9687
X7.5125Y-2.7187
X7.5125Y-3.4687
X7.8625Y-1.9687
X7.8625Y-2.7187
X7.8625Y-3.4687
X8.2625Y-1.9687
X8.2625Y-2.7187
X8.2625Y-3.4687
T5
X5.4844Y-3.7969
X6.9375Y-1.6406
X6.9375Y-3.7969
X8.3906Y-1.6406
X8.3906Y-3.7969
T6
X5.8125Y-1.9687
X5.8125Y-2.7187
X5.8125Y-3.4687
X6.5625Y-1.9687
X6.5625Y-2.7187
X6.5625Y-3.4687
X7.3125Y-1.9687
X7.3125Y-2.7187
X7.3125Y-3.4687
X8.0625Y-1.9687
X8.0625Y-2.7187
X8.0625Y-3.4687
T0
M30
